<svg width="13" height="11" viewBox="0 0 13 11" fill="none" xmlns="http://www.w3.org/2000/svg">
<path d="M5.83891 0.898972C6.05701 0.272496 6.94299 0.272495 7.16109 0.898971L8.02028 3.36702C8.11822 3.64835 8.38348 3.83688 8.68137 3.83688H11.3534C12.0431 3.83688 12.3171 4.72913 11.7463 5.11624L9.66952 6.52449C9.4071 6.70244 9.29706 7.03455 9.4013 7.33399L10.2138 9.66792C10.4354 10.3044 9.71768 10.8557 9.15985 10.4774L6.89287 8.94017C6.65565 8.77931 6.34435 8.77931 6.10713 8.94017L3.84014 10.4774C3.28232 10.8557 2.56461 10.3044 2.78619 9.66792L3.5987 7.33399C3.70294 7.03455 3.5929 6.70244 3.33048 6.52449L1.25374 5.11624C0.682872 4.72913 0.956866 3.83688 1.64661 3.83688H4.31863C4.61652 3.83688 4.88178 3.64835 4.97972 3.36702L5.83891 0.898972Z" fill="#F9CE1E"/>
</svg>
